<svg xmlns="http://www.w3.org/2000/svg" width="31.922" height="25.815" viewBox="0 0 31.922 25.815">
    <g id="brain" transform="translate(-0.158 462.815)">
        <path id="Контур_3" data-name="Контур 3" d="M16.059-462.765a18.561,18.561,0,0,0-6.208,1.61,5.27,5.27,0,0,1-.873.293,10.647,10.647,0,0,0-2.558.842,7.971,7.971,0,0,0-3.631,3.482,9.747,9.747,0,0,1-.749,1.123c-2.39,3.057-2.5,5.971-.337,8.841.231.306.524.718.655.917A5.712,5.712,0,0,0,3.8-444.271a4.808,4.808,0,0,0,4.024.156c.293-.1.574-.2.636-.218s.162.056.312.3a4.875,4.875,0,0,0,2.8,2.109,8.369,8.369,0,0,0,2.964.094l.724-.106.3.281a3.192,3.192,0,0,0,1.323.724,6.971,6.971,0,0,0,1.616.256c.231,0,.268.037,1.8,1.735a24.871,24.871,0,0,0,1.741,1.822,11.246,11.246,0,0,0,2.77.062,1.11,1.11,0,0,0,.736-.724,1.626,1.626,0,0,0-.087-.892c-.087-.349-.156-.661-.156-.686a.852.852,0,0,1,.362-.131,10.1,10.1,0,0,0,1.915-.7,7.2,7.2,0,0,0,3.837-4.168,4.329,4.329,0,0,0,.025-2,4.1,4.1,0,0,0-.568-1.136c-.087-.094-.075-.131.087-.343a5.318,5.318,0,0,0-.293-6.888c-.225-.275-.63-.767-.9-1.1a37.4,37.4,0,0,0-4-3.925,14.217,14.217,0,0,0-7.893-3.02c-.5-.031-.948-.056-1-.05S16.452-462.79,16.059-462.765ZM18.5-460.7a4.154,4.154,0,0,1,.549.094,1.187,1.187,0,0,1-.225.318,6.078,6.078,0,0,0-1.279,2.6,9.012,9.012,0,0,0-.062,2.7,1.013,1.013,0,0,0,1.822.262c.106-.175.119-.312.119-1.2a4.354,4.354,0,0,1,.48-2.4c.318-.611,1.292-1.56,1.6-1.56a13.9,13.9,0,0,1,3.151,1.847,1.338,1.338,0,0,1-.175.512,1.549,1.549,0,0,1-.674.724,2.111,2.111,0,0,0-.574.537.994.994,0,0,0,.025.961c.318.555.961.624,1.672.175a3.973,3.973,0,0,0,1.2-1.21l.175-.293.512.543c.287.3.7.755.917,1.017s.58.693.8.955a7.009,7.009,0,0,1,1.161,1.566,3.254,3.254,0,0,1-.755,3.962c-.611.655-.724.9-.593,1.323a1.018,1.018,0,0,0,.324.487c.537.474.711.674.786.917.324,1.073-.474,2.421-2.046,3.444a7.767,7.767,0,0,1-3.151,1.161c-.724.106-1,.281-1.154.711-.081.231-.081.312.019.786.056.287.125.568.144.624.031.075-.006.094-.168.094-.2,0-.318-.119-1.766-1.722a15.855,15.855,0,0,0-1.747-1.8,4.869,4.869,0,0,0-.973-.112c-1.229-.062-1.628-.243-2.028-.917a1.349,1.349,0,0,0-.343-.362c-.262-.175-.543-.168-1.435.05a5.235,5.235,0,0,1-1.56.15,2.7,2.7,0,0,1-1.978-.487,3.418,3.418,0,0,1-.892-1,1.689,1.689,0,0,1,.4-.393A3.857,3.857,0,0,0,12.2-448a2.171,2.171,0,0,0-.031-.936c-.119-.593-.293-.88-.611-1.042a1,1,0,0,0-1.3.343c-.15.237-.162.431-.094,1.123a.829.829,0,0,1-.144.73,6.822,6.822,0,0,1-3.719,1.99c-1.048.181-1.448-.062-2.72-1.66a5.255,5.255,0,0,1-1.4-2.932,4.342,4.342,0,0,1,.231-1.647l.087-.218.175.356a4.2,4.2,0,0,0,3.669,2.377c.655.006.8-.05,1.073-.424a1.141,1.141,0,0,0,0-1.079,1.042,1.042,0,0,0-.8-.455,2.45,2.45,0,0,1-2.421-2.209,3.479,3.479,0,0,1,.892-2.72,6.568,6.568,0,0,1,4.143-2.465,1.581,1.581,0,0,1,1.9.724c.356.487.568.618,1.017.618a.974.974,0,0,0,.942-1c0-.318-.125-.562-.568-1.1l-.268-.324.524-.162a19.869,19.869,0,0,1,2.533-.562A18.174,18.174,0,0,1,18.5-460.7Z" transform="translate(0)" fill="#fff"/>
        <path id="Контур_4" data-name="Контур 4" d="M137.53-371.578a1.356,1.356,0,0,0-.424.362c-.131.193-.144.268-.112.649a1.173,1.173,0,0,1-.069.643,2.679,2.679,0,0,1-2.365,1.048,1.045,1.045,0,0,1-.587-.312,1.1,1.1,0,0,0-.593-.318,1.015,1.015,0,0,0-1.129,1.123A2.234,2.234,0,0,0,133.743-367a4.622,4.622,0,0,0,2.808-.2l.374-.15.331.362a3.133,3.133,0,0,0,2.309,1.136,1.586,1.586,0,0,0,1.56-.73.989.989,0,0,0-.412-1.254c-.225-.15-.424-.156-1.067-.044-.287.056-.493-.05-.867-.431l-.281-.293.168-.293c.53-.955.455-2.246-.162-2.627A.893.893,0,0,0,137.53-371.578Z" transform="translate(-123.842 -85.433)" fill="#fff"/>
        <path id="Контур_5" data-name="Контур 5" d="M253.747-321.751a.932.932,0,0,0-.562.842,1.053,1.053,0,0,0,.53.936,2.305,2.305,0,0,1,.468.437,2.334,2.334,0,0,1,.312,1.173,4.483,4.483,0,0,1-.218,1.2,1.785,1.785,0,0,1-.5-.069,5.089,5.089,0,0,0-3.07.293,3.25,3.25,0,0,0-1.554,1.71,1,1,0,0,0,1.235,1.129c.256-.069.431-.218.824-.711a1.465,1.465,0,0,1,1.242-.518,3.809,3.809,0,0,1,1.965.431,3.975,3.975,0,0,1,1.959,1.666,1.7,1.7,0,0,1,.15.792c.006.586.069.761.331.986a.99.99,0,0,0,1.529-.268,2.712,2.712,0,0,0,.075-1.585,5.133,5.133,0,0,0-1.953-2.7c-.293-.206-.387-.312-.362-.387a6.072,6.072,0,0,0,.256-2.951,3.589,3.589,0,0,0-1.716-2.377A.84.84,0,0,0,253.747-321.751Z" transform="translate(-233.445 -132.142)" fill="#fff"/>
        <path id="Контур_6" data-name="Контур 6" d="M395.649-292.634c-.98.193-1.2.281-1.4.568a1,1,0,0,0,.811,1.554,10.966,10.966,0,0,0,2.071-.412,1.054,1.054,0,0,0,.493-.636,1.05,1.05,0,0,0-.686-1.2C396.653-292.84,396.685-292.84,395.649-292.634Z" transform="translate(-369.333 -159.399)" fill="#fff"/>
    </g>
</svg>
